<?xml version="1.0" encoding="UTF-8" standalone="no"?>
<!-- Created with Inkscape (http://www.inkscape.org/) -->

<svg
   class="home__link-wrapper"
   width="34.849068mm"
   height="22.223406mm"
   viewBox="0 0 34.849068 22.223406"
   version="1.1"
   id="svg530"
   inkscape:version="1.1 (c68e22c387, 2021-05-23)"
   sodipodi:docname="circle.svg"
   xmlns:inkscape="http://www.inkscape.org/namespaces/inkscape"
   xmlns:sodipodi="http://sodipodi.sourceforge.net/DTD/sodipodi-0.dtd"
   xmlns="http://www.w3.org/2000/svg"
   xmlns:svg="http://www.w3.org/2000/svg">
  <sodipodi:namedview
     id="namedview532"
     pagecolor="#ffffff"
     bordercolor="#666666"
     borderopacity="1.0"
     inkscape:pageshadow="2"
     inkscape:pageopacity="0.0"
     inkscape:pagecheckerboard="0"
     inkscape:document-units="mm"
     showgrid="false"
     inkscape:zoom="0.69130191"
     inkscape:cx="80.283302"
     inkscape:cy="91.132397"
     inkscape:window-width="1920"
     inkscape:window-height="1011"
     inkscape:window-x="0"
     inkscape:window-y="0"
     inkscape:window-maximized="1"
     inkscape:current-layer="layer1" />
  <defs
     id="defs527" />
  <g
     inkscape:label="Layer 1"
     inkscape:groupmode="layer"
     id="layer1"
     transform="translate(-83.999435,-124.37537)">
    <path
       id="path24"
       style="fill:#100f0d;fill-opacity:1;fill-rule:nonzero;stroke:none;stroke-width:0.0352777"
       d="m 104.98131,124.37856 c -2.2692,0.0423 -4.55595,0.50523 -6.710187,1.14464 -2.01163,0.59689 -3.952516,1.43458 -5.739186,2.50372 -0.107308,0.0556 -0.213654,0.1113 -0.319876,0.1695 -0.07722,0.0481 -0.156539,0.0915 -0.233061,0.14056 -2.34481,1.33634 -4.414386,3.26427 -5.931422,5.31596 -2.085975,2.82081 -3.114305,6.83945 -0.44907,9.62887 0.112176,0.11743 0.244359,0.21094 0.363803,0.31987 0.116353,0.15354 0.195064,0.32121 0.330729,0.46716 1.985661,2.13647 5.230249,2.55532 8.175729,2.39365 0.152228,0.0131 0.317447,0.0393 0.46664,0.0506 3.164772,0.24215 6.335741,-0.0487 9.450071,-0.62373 5.26697,-0.97151 14.98054,-3.55015 14.44149,-10.57714 -0.0347,-0.45264 -0.12184,-0.90096 -0.23202,-1.34513 0.30414,-1.91753 -0.25548,-3.76864 -1.98593,-5.08806 -0.65377,-0.49865 -1.39197,-0.87446 -2.16782,-1.18546 -0.90814,-0.77772 -1.87823,-1.44583 -2.85564,-1.93528 -2.08351,-1.04334 -4.33505,-1.42201 -6.60425,-1.37977 z m 0.36535,0.51832 c 1.87281,0.0224 3.72692,0.34846 5.48442,1.09141 0.77118,0.32583 1.47439,0.76075 2.14664,1.23868 -1.67887,-0.45403 -3.4533,-0.66271 -5.0798,-0.77876 -3.19087,-0.22755 -6.29668,-0.0271 -9.431461,0.56947 -0.748948,0.14287 -1.49879,0.2848 -2.248442,0.42168 -0.334434,0.0614 -0.191731,0.56953 0.139528,0.5085 2.08774,-0.38206 4.151745,-0.86291 6.273005,-0.99167 1.48978,-0.09 2.98553,-0.0936 4.47673,-0.0269 2.29561,0.10305 4.84116,0.35216 7.05848,1.23404 0.86502,0.78554 1.63945,1.67658 2.30115,2.64687 0.67589,0.99171 1.22368,2.08816 1.5472,3.24062 -0.29795,1.48638 -1.09387,2.96232 -2.0743,4.07831 -2.9083,3.31117 -7.5494,4.91136 -11.67267,6.03891 -3.14762,0.8606 -6.584575,1.66105 -9.930663,1.75028 -1.172033,-0.11496 -2.3378,-0.27761 -3.477305,-0.55449 -1.722345,-0.41916 -3.441648,-1.12794 -4.745448,-2.35696 -1.130414,-1.67241 -0.966939,-3.88185 -0.447519,-5.76554 0.987568,-3.57778 3.409066,-6.31591 6.392892,-8.29304 1.56895,-0.93745 3.289819,-1.65376 5.072042,-1.83451 0.334788,-0.0339 0.337963,-0.56081 0,-0.52658 -0.230976,0.0234 -0.457068,0.0835 -0.686263,0.12143 2.799956,-1.07616 5.871304,-1.84807 8.901784,-1.81177 z m 10.48257,4.15582 c 0.1653,0.10395 0.35586,0.16633 0.51418,0.28112 1.20789,0.87616 1.72343,2.03748 1.79368,3.26957 -0.53498,-1.28368 -1.3444,-2.48326 -2.30786,-3.55069 z m -28.957414,4.34599 c -1.399747,2.1863 -2.472698,5.08719 -2.015898,7.67963 -0.451726,-1.28091 -0.413189,-2.71795 -0.0011,-4.04936 0.409485,-1.32222 1.133845,-2.53425 2.016929,-3.63027 z m 31.375864,1.73064 c 0.0536,0.42585 0.0881,0.85537 0.0553,1.29346 -0.26035,3.48298 -3.84121,5.5903 -6.69624,6.82749 -3.33551,1.44467 -7.01217,2.21331 -10.61227,2.61587 -1.080819,0.12077 -2.175117,0.17366 -3.271117,0.19171 3.839367,-0.63256 7.656157,-1.46147 11.283037,-2.89646 3.56058,-1.40935 7.30847,-3.56486 8.97464,-7.18613 0.12871,-0.27986 0.1721,-0.56351 0.26665,-0.84594 z" />
  </g>
</svg>
